HIERARCHY
ROOT SimulationBone
{
	OFFSET 0.000000 0.000000 0.000000
	CHANNELS 6 Xposition Yposition Zposition Zrotation Yrotation Xrotation 
	JOINT Hips
	{
		OFFSET 0.000000 0.000000 0.000000
		CHANNELS 6 Xposition Yposition Zposition Zrotation Yrotation Xrotation 
		JOINT LeftUpLeg
		{
			OFFSET 0.103458 1.857820 10.548502
			CHANNELS 3 Zrotation Yrotation Xrotation
			JOINT LeftLeg
			{
				OFFSET 43.500000 -0.000023 -0.000011
				CHANNELS 3 Zrotation Yrotation Xrotation
				JOINT LeftFoot
				{
					OFFSET 42.372192 0.000038 0.000002
					CHANNELS 3 Zrotation Yrotation Xrotation
					JOINT LeftToe
					{
						OFFSET 17.299992 -0.000004 0.000006
						CHANNELS 3 Zrotation Yrotation Xrotation
						End Site
						{
							OFFSET 0.000000 0.000000 0.000000
						}
					}
				}
			}
		}
		JOINT RightUpLeg
		{
			OFFSET 0.103461 1.857814 -10.548508
			CHANNELS 3 Zrotation Yrotation Xrotation
			JOINT RightLeg
			{
				OFFSET 43.500042 -0.000015 0.000008
				CHANNELS 3 Zrotation Yrotation Xrotation
				JOINT RightFoot
				{
					OFFSET 42.372253 0.000008 0.000006
					CHANNELS 3 Zrotation Yrotation Xrotation
					JOINT RightToe
					{
						OFFSET 17.299973 -0.000014 0.000011
						CHANNELS 3 Zrotation Yrotation Xrotation
						End Site
						{
							OFFSET 0.000000 0.000000 0.000000
						}
					}
				}
			}
		}
		JOINT Spine
		{
			OFFSET 6.901966 -2.603737 -0.000007
			CHANNELS 3 Zrotation Yrotation Xrotation
			JOINT Spine1
			{
				OFFSET 12.588102 0.000017 0.000001
				CHANNELS 3 Zrotation Yrotation Xrotation
				JOINT Spine2
				{
					OFFSET 12.343197 -0.000013 0.000000
					CHANNELS 3 Zrotation Yrotation Xrotation
					JOINT Neck
					{
						OFFSET 25.832905 -0.000008 0.000000
						CHANNELS 3 Zrotation Yrotation Xrotation
						JOINT Head
						{
							OFFSET 11.766610 0.000009 -0.000002
							CHANNELS 3 Zrotation Yrotation Xrotation
							End Site
							{
								OFFSET 0.000000 0.000000 0.000000
							}
						}
					}
					JOINT LeftShoulder
					{
						OFFSET 19.745903 -1.480377 6.000115
						CHANNELS 3 Zrotation Yrotation Xrotation
						JOINT LeftArm
						{
							OFFSET 11.284125 -0.000014 -0.000024
							CHANNELS 3 Zrotation Yrotation Xrotation
							JOINT LeftForeArm
							{
								OFFSET 33.000046 -0.000012 0.000029
								CHANNELS 3 Zrotation Yrotation Xrotation
								JOINT LeftHand
								{
									OFFSET 25.199989 0.000034 0.000012
									CHANNELS 3 Zrotation Yrotation Xrotation
									End Site
									{
										OFFSET 0.000000 0.000000 0.000000
									}
								}
							}
						}
					}
					JOINT RightShoulder
					{
						OFFSET 19.746098 -1.480362 -6.000071
						CHANNELS 3 Zrotation Yrotation Xrotation
						JOINT RightArm
						{
							OFFSET 11.284137 -0.000006 -0.000008
							CHANNELS 3 Zrotation Yrotation Xrotation
							JOINT RightForeArm
							{
								OFFSET 33.000095 0.000017 0.000000
								CHANNELS 3 Zrotation Yrotation Xrotation
								JOINT RightHand
								{
									OFFSET 25.199778 0.000144 0.000423
									CHANNELS 3 Zrotation Yrotation Xrotation
									End Site
									{
										OFFSET 0.000000 0.000000 0.000000
									}
								}
							}
						}
					}
				}
			}
		}
	}
}
MOTION
Frames: 14
Frame Time: 0.033333
54.497825 0.000000 -350.949110 0.000000 -53.376042 0.000000 -17.571937 83.790337 -9.184529 67.488235 -17.099119 174.458399 118.966746 8.984404 178.368150 -97.245269 3.372914 -12.601007 80.794164 7.436500 -5.870726 21.454562 0.003110 0.000010 165.334469 -0.221994 179.432785 -34.052475 1.764006 9.564985 96.727131 -6.915859 -6.062595 21.454553 -0.003087 -0.000003 14.029097 -0.807583 2.450349 18.006686 -1.986912 4.745436 17.689568 -1.958388 4.757300 -7.773040 -12.374019 -8.765610 -31.195386 3.985730 -14.280910 -153.426020 -72.552107 -28.691415 37.620409 45.335094 66.749198 -42.078839 -16.223414 1.621948 -21.442769 -11.848026 39.722297 -172.021442 85.305395 9.688266 -35.070296 -47.737326 7.243904 -118.117808 -0.982428 -3.462976 -14.701468 8.001592 -12.608830 
56.657085 0.000000 -342.990127 0.000000 -55.917701 0.000000 -17.009876 85.272369 -8.230303 66.773184 -18.406025 175.981082 111.947128 8.813708 173.412137 -89.357384 1.645734 -12.742843 81.044982 7.538528 -6.202406 21.454558 0.003105 0.000019 173.941545 2.559497 -179.627049 -24.262867 3.909736 8.951045 79.798432 -7.761887 -6.103712 21.454550 -0.003097 0.000003 13.320676 -1.721223 2.298118 16.566132 -3.753863 4.327700 16.248279 -3.727814 4.350244 -8.143872 -12.494346 -8.778560 -29.376551 4.719845 -14.598428 -153.354016 -72.949993 -28.755687 37.573994 42.486338 67.620177 -44.318567 -16.341861 1.693712 -21.676203 -12.472282 38.942423 -158.449542 84.058680 23.379831 -26.771584 -50.451349 2.858265 -124.202701 -1.704254 -3.657594 -15.585290 8.830945 -11.660610 
58.812437 0.000000 -334.798299 0.000000 -58.419663 0.000000 -16.530113 86.106537 -6.956522 66.268527 -17.479262 177.358026 108.881999 7.154793 171.495204 -77.391425 -1.402180 -9.664812 81.535711 5.269903 -7.071541 21.454557 0.003095 0.000016 -179.827078 2.108307 -176.514286 -20.282667 3.288390 6.971793 65.950148 -4.974333 0.391136 21.454558 -0.003088 0.000002 12.607524 -2.073159 2.125316 15.136828 -4.406552 3.963235 14.818539 -4.382717 3.989757 -7.690619 -13.276721 -8.097853 -28.284676 6.455640 -14.811641 -152.573012 -72.110938 -29.579309 35.518148 40.178058 66.813662 -47.018609 -16.486716 1.784556 -20.820017 -14.816506 34.853113 -160.144304 82.635208 21.689541 -20.022529 -51.517392 -1.450477 -125.518496 -1.579436 -3.717239 -15.673782 7.330529 -15.314440 
60.959971 0.000000 -326.387961 0.000000 -60.864199 0.000000 -15.710486 86.144928 -5.552156 66.772090 -14.707450 178.805319 110.462559 5.776902 170.212371 -63.542186 -3.836494 -6.893001 82.112562 2.790667 -9.824603 21.454557 0.003111 0.000017 -177.087121 -2.118397 -177.531206 -26.055915 0.164581 6.028008 58.854094 -0.777733 8.311230 21.454545 -0.003103 0.000003 12.107069 -1.943877 2.030895 14.141636 -4.121431 3.810757 13.823411 -4.098492 3.835557 -7.904217 -12.532732 -7.455051 -26.935297 6.519631 -13.893641 -153.618044 -71.451299 -28.522254 32.186464 39.378110 63.824641 -50.170137 -16.890441 1.911831 -21.639837 -16.632103 33.619496 -162.337272 81.755568 19.481025 -14.436184 -52.596746 -5.033620 -123.380305 -1.200386 -3.659904 -13.552840 4.415146 -20.577519 
63.095778 0.000000 -317.773451 0.000000 -63.235192 0.000000 -14.993853 85.378113 -4.570874 68.940043 -12.808173 179.942586 115.642315 5.605897 168.394557 -52.179076 -6.503522 -6.781710 82.641601 2.223893 -12.612039 21.454562 0.003109 0.000016 -177.812036 -4.430495 176.207898 -42.071083 2.559422 3.780676 62.427738 0.308333 7.654135 21.454550 -0.003085 0.000012 12.045352 -1.875706 1.871306 14.025443 -3.964433 3.502908 13.707160 -3.943353 3.526768 -9.307788 -11.418288 -6.711816 -24.833948 6.426161 -12.750869 -155.030049 -70.871614 -27.083310 27.132122 39.869139 59.217351 -54.149429 -17.158699 2.064811 -20.804784 -17.361958 31.254297 -164.409470 81.152845 17.386754 -9.679350 -53.766283 -7.194912 -119.268695 -0.693138 -3.530040 -10.010103 1.062716 -24.426869 
65.215948 0.000000 -308.969103 0.000000 -65.518595 0.000000 -14.042107 83.867157 -3.931326 72.616901 -11.624093 -179.316236 122.463038 6.381598 166.065354 -48.547591 -6.210466 -6.606410 83.757701 1.925805 -14.003799 21.454553 0.003106 0.000017 -179.453522 -5.162401 174.952468 -62.142106 4.967046 -0.613783 66.989594 1.706288 3.764843 21.454550 -0.003096 0.000004 12.292499 -1.870651 1.580878 14.530562 -3.925031 2.915410 14.212100 -3.907486 2.939056 -9.535591 -9.236869 -5.662272 -25.235008 5.910525 -10.921216 -157.069953 -70.894331 -24.982918 21.942271 41.726452 53.057575 -59.753876 -17.020987 2.259503 -20.641445 -16.433601 30.524600 -165.039418 80.274879 16.753911 -6.807635 -54.898428 -7.909665 -113.412409 -0.114415 -3.326453 -7.017666 -0.785316 -27.260402 
67.316573 0.000000 -299.989255 0.000000 -67.702720 0.000000 -12.933474 82.137444 -3.566098 76.806043 -10.652730 -179.504213 130.957608 8.366106 169.856805 -47.640173 -5.812785 -7.218490 81.203525 4.808856 -2.062716 21.454555 0.003105 0.000017 178.167110 -5.145800 179.652485 -82.310698 1.149173 0.791859 65.999114 2.201392 7.307173 21.454539 -0.003097 0.000001 12.456147 -1.936556 1.255236 14.868914 -4.018290 2.251979 14.550241 -4.004772 2.276214 -7.571998 -4.648602 -4.728664 -26.344340 3.496640 -7.640102 -161.364995 -70.882023 -20.559875 16.906381 43.565747 45.701783 -65.706133 -16.322183 2.443516 -21.161014 -16.550605 30.306745 -165.662468 78.263736 16.132407 -5.372736 -55.644014 -8.409661 -104.630794 1.020165 -3.025626 -7.747686 0.940358 -30.687651 
69.393745 0.000000 -290.848242 0.000000 -69.778380 0.000000 -11.690347 80.316704 -3.488410 80.171289 -9.969783 -179.676559 137.446806 8.412997 169.968452 -56.990552 -4.527075 -8.831263 92.795005 6.284955 1.241283 21.454560 0.003110 0.000019 172.801669 -3.761593 -174.919191 -101.536691 -3.508843 6.802100 67.748004 -2.201970 7.020075 21.454551 -0.003094 0.000003 12.167147 -1.989230 0.617505 14.312929 -4.039443 0.984292 13.994021 -4.033552 1.008692 -4.395663 -1.365363 -3.412355 -26.830755 2.049033 -4.789514 -162.982070 -70.272101 -18.901000 10.193253 45.167399 36.827898 -71.132930 -14.597815 2.546274 -20.246445 -15.363344 30.400923 -167.893986 76.967715 13.862498 -2.538222 -57.613137 -10.201860 -92.998954 2.797025 -2.633903 -7.176697 2.317667 -32.100414 
71.443552 0.000000 -281.560401 0.000000 -71.738884 0.000000 -11.038993 79.807411 -3.208401 82.273344 -9.166066 -178.911891 146.330465 7.678807 170.858343 -59.611548 -3.702258 -8.353635 99.931610 5.578403 -1.756564 21.454555 0.003106 0.000016 162.907388 -2.376006 -173.485289 -116.000299 -4.899499 10.661731 70.149799 -5.349633 6.164210 21.454550 -0.003099 -0.000007 11.897853 -1.923597 -0.333307 13.805283 -3.793449 -0.894614 13.486462 -3.798928 -0.871665 -4.039764 -0.538142 -1.587144 -26.322050 1.585031 -2.490577 -165.448970 -69.053090 -16.364614 -0.678561 45.001231 25.909329 -77.283911 -12.748700 2.678846 -20.688979 -13.694001 31.275375 -171.125909 75.567178 10.559877 -0.222815 -59.100438 -15.419166 -80.711915 9.521997 -2.563224 -4.092412 3.586939 -30.996221 
73.462088 0.000000 -272.140068 0.000000 -73.579916 0.000000 -10.160337 80.155312 -2.726402 83.635263 -7.462883 -177.595211 157.679234 4.873696 171.253033 -56.589661 -3.948464 -6.377554 104.298792 4.229256 -3.411873 21.454558 0.003101 0.000017 150.966182 -2.480706 -173.797811 -122.433600 -5.081902 11.051409 72.410783 -6.645483 3.197831 21.454548 -0.003090 0.000000 11.483911 -1.464332 -1.162481 12.989175 -2.788646 -2.482905 12.670992 -2.803712 -2.466038 -5.649892 -0.388648 0.139950 -24.349196 1.611996 -0.657154 -166.324942 -70.912424 -15.450327 -9.536343 48.217218 13.701729 -85.213816 -8.556848 2.732540 -21.306528 -11.117818 33.097953 -168.040795 73.897804 13.718067 7.857158 -57.591213 -25.669594 -73.439082 12.402572 -2.453801 -3.375681 7.996213 -28.509377 
75.445442 0.000000 -262.601578 0.000000 -75.299328 0.000000 -9.404698 81.501869 -2.169252 83.900949 -5.005952 -175.420465 168.614093 1.364107 173.173381 -49.640138 -4.995280 -4.807467 101.755503 3.118399 -4.165064 21.454558 0.003115 0.000018 138.935378 -2.004298 -173.630212 -120.193393 -4.701810 9.404982 73.457981 -5.717696 2.615423 21.454557 -0.003089 0.000002 10.885747 -0.566175 -2.161675 11.776433 -0.909101 -4.369828 11.459307 -0.935589 -4.364276 -7.334701 -0.687903 2.167873 -23.326039 0.846877 1.684318 -164.973999 -73.117783 -16.827030 -16.051161 52.293704 2.541090 -93.760951 -2.464391 2.687373 -20.309439 -12.259987 27.935248 -161.983236 73.502698 19.934010 18.126311 -52.359872 -37.428590 -73.825787 11.011879 -2.373380 -5.191407 6.900047 -25.274000 
77.389705 0.000000 -252.959269 0.000000 -76.896880 0.000000 -8.438974 83.430939 -1.382376 83.830374 -1.940589 -172.451031 178.225549 -2.662801 175.663655 -41.296632 -5.180913 -4.331315 90.454306 2.301698 -5.374617 21.454557 0.003114 0.000013 130.213513 -1.314505 -172.623250 -110.738397 -3.711631 7.592976 73.980415 -4.552218 2.508240 21.454551 -0.003096 0.000004 10.345028 0.513593 -3.170822 10.641789 1.316819 -6.281161 10.325685 1.278814 -6.288967 -10.385754 1.810987 3.835301 -21.020896 -2.078656 5.229971 -163.574930 -74.564615 -18.249893 -20.055674 54.761339 -2.219754 -102.219805 -0.024997 2.895557 -18.981895 -13.957889 22.045443 -155.227769 73.765702 26.856505 25.438717 -46.003882 -48.429508 -76.294381 9.519708 -2.373696 -6.612867 7.369668 -22.956151 
79.290969 0.000000 -243.227476 0.000000 -78.373956 0.000000 -7.071856 85.651627 -0.624019 84.569299 1.391223 -170.732581 -171.706912 -7.819903 176.895780 -32.002250 -6.525470 -4.538421 75.520534 1.540613 -6.537207 21.454558 0.003104 0.000017 126.661405 -2.258003 -172.538338 -95.479030 -1.542409 7.485952 73.556964 -4.244715 3.619287 21.454550 -0.003093 0.000001 10.051242 1.470988 -3.699722 9.990328 3.255951 -7.261183 9.674478 3.212033 -7.280587 -13.697130 6.117661 4.746636 -17.471369 -4.935233 8.426687 -163.400023 -75.199495 -18.423223 -20.368591 55.791564 -3.088971 -109.951299 1.589859 3.124199 -18.795977 -12.693709 19.796246 -152.668593 73.786800 29.478482 31.531353 -40.108059 -57.209791 -78.145676 8.017425 -2.347992 -7.139288 9.031562 -18.181760 
81.145324 0.000000 -233.420536 0.000000 -79.733276 0.000000 -5.506706 87.489166 -0.146616 84.976840 3.109303 -171.020705 -163.231686 -10.240201 174.049804 -26.834558 -5.412627 -4.652023 66.031045 -0.672465 -11.269512 21.454560 0.003107 0.000016 126.628524 -3.498508 -176.428240 -76.855071 3.180249 8.334581 73.682544 -4.401501 5.648614 21.454551 -0.003091 0.000002 9.724284 1.926002 -3.827348 9.305778 4.153453 -7.491964 8.989777 4.108120 -7.516733 -16.505644 10.521190 4.863573 -14.020735 -7.940309 10.902765 -163.270987 -74.899294 -18.559026 -18.323719 55.535910 -0.970223 -116.131111 2.529528 3.323947 -19.788412 -12.673913 20.017852 -154.297935 74.230708 27.798518 37.833381 -35.148953 -64.111817 -80.129601 6.346053 -2.316743 -7.703830 10.593019 -11.368449 
